<svg width="100" height="100" viewBox="0 0 100 100" fill="none" xmlns="http://www.w3.org/2000/svg">
<g clip-path="url(#clip0_366_62083)">
<g clip-path="url(#clip1_366_62083)">
<path fill-rule="evenodd" clip-rule="evenodd" d="M-10.9824 81.7494C-10.6729 81.6857 -10.595 81.2618 -10.8687 81.1038L-14.3914 79.07C-14.5731 78.9651 -14.8055 79.0522 -14.8727 79.251C-15.2987 80.5117 -15.693 81.7606 -16.0555 82.9953C-16.14 83.2832 -15.8271 83.5288 -15.5612 83.3897C-14.1008 82.6256 -12.5579 82.0736 -10.9824 81.7494ZM22.7539 105.402C22.547 105.619 22.1776 105.471 22.1652 105.171C22.0967 103.524 21.8035 101.912 21.2966 100.386C21.1969 100.086 21.5248 99.8062 21.7985 99.9642L25.3215 101.998C25.5031 102.103 25.5438 102.348 25.4054 102.506C24.5264 103.505 23.6419 104.471 22.7539 105.402Z" fill="black"/>
<path d="M-16.8475 95.8478C-16.8222 95.804 -16.7663 95.789 -16.7225 95.8143L11.9864 112.389C12.0302 112.415 12.0453 112.471 12.02 112.514C10.7566 114.703 7.95856 115.452 5.7704 114.189L-15.1728 102.097C-17.3611 100.834 -18.1109 98.036 -16.8475 95.8478Z" fill="black"/>
<path fill-rule="evenodd" clip-rule="evenodd" d="M12.0386 89.3721C12.1072 89.6283 12.2748 89.8467 12.5045 89.9793L15.5305 91.7264C15.8495 91.9105 15.9602 92.3202 15.7557 92.6263C15.7383 92.6525 15.7205 92.6786 15.7029 92.7045C15.3807 93.1765 15.4493 93.829 15.8778 94.2068C21.3251 99.0099 22.8224 107.138 19.0513 113.67C18.7502 114.191 18.0835 114.37 17.5618 114.069L-20.9642 91.8257C-21.4857 91.5246 -21.6643 90.8577 -21.3632 90.3362C-17.5987 83.8159 -9.83186 81.0469 -2.9575 83.341C-2.41629 83.5216 -1.81859 83.2542 -1.57159 82.7399C-1.55688 82.7092 -1.542 82.6787 -1.52697 82.6482C-1.36423 82.3179 -0.954028 82.209 -0.635158 82.3931L2.54954 84.2318C2.77923 84.3644 3.05218 84.4003 3.30835 84.3317L9.2277 82.7456C9.76118 82.6027 10.3095 82.9192 10.4525 83.4527L12.0386 89.3721ZM-10.8582 88.8076C-9.4775 86.4162 -6.41956 85.5968 -4.02809 86.9775C-1.63662 88.3582 -0.817244 91.4162 -2.19796 93.8076C-3.57866 96.1991 -6.63662 97.0185 -9.02809 95.6378C-11.4196 94.257 -12.2389 91.1991 -10.8582 88.8076ZM13.2924 96.9775C10.9009 95.5968 7.84301 96.4162 6.46229 98.8076C5.08159 101.199 5.90095 104.257 8.29242 105.638C10.6838 107.018 13.7418 106.199 15.1225 103.808C16.5033 101.416 15.6838 98.3582 13.2924 96.9775Z" fill="black"/>
</g>
<g clip-path="url(#clip2_366_62083)">
<path fill-rule="evenodd" clip-rule="evenodd" d="M89.0176 81.7494C89.3271 81.6857 89.405 81.2618 89.1313 81.1038L85.6086 79.07C85.4269 78.9651 85.1945 79.0522 85.1273 79.251C84.7013 80.5117 84.307 81.7606 83.9445 82.9953C83.86 83.2832 84.1729 83.5288 84.4388 83.3897C85.8992 82.6256 87.4421 82.0736 89.0176 81.7494ZM122.754 105.402C122.547 105.619 122.178 105.471 122.165 105.171C122.097 103.524 121.804 101.912 121.297 100.386C121.197 100.086 121.525 99.8062 121.799 99.9642L125.322 101.998C125.503 102.103 125.544 102.348 125.405 102.506C124.526 103.505 123.642 104.471 122.754 105.402Z" fill="black"/>
<path d="M83.1525 95.8478C83.1778 95.804 83.2337 95.789 83.2775 95.8143L111.986 112.389C112.03 112.415 112.045 112.471 112.02 112.514C110.757 114.703 107.959 115.452 105.77 114.189L84.8272 102.097C82.6389 100.834 81.8891 98.036 83.1525 95.8478Z" fill="black"/>
<path fill-rule="evenodd" clip-rule="evenodd" d="M112.039 89.3721C112.107 89.6283 112.275 89.8467 112.504 89.9793L115.531 91.7264C115.849 91.9105 115.96 92.3202 115.756 92.6263C115.738 92.6525 115.721 92.6786 115.703 92.7045C115.381 93.1765 115.449 93.829 115.878 94.2068C121.325 99.0099 122.822 107.138 119.051 113.67C118.75 114.191 118.083 114.37 117.562 114.069L79.0358 91.8257C78.5143 91.5246 78.3357 90.8577 78.6368 90.3362C82.4013 83.8159 90.1681 81.0469 97.0425 83.341C97.5837 83.5216 98.1814 83.2542 98.4284 82.7399C98.4431 82.7092 98.458 82.6787 98.473 82.6482C98.6358 82.3179 99.046 82.209 99.3648 82.3931L102.55 84.2318C102.779 84.3644 103.052 84.4003 103.308 84.3317L109.228 82.7456C109.761 82.6027 110.31 82.9192 110.452 83.4527L112.039 89.3721ZM89.1418 88.8076C90.5225 86.4162 93.5804 85.5968 95.9719 86.9775C98.3634 88.3582 99.1828 91.4162 97.802 93.8076C96.4213 96.1991 93.3634 97.0185 90.9719 95.6378C88.5804 94.257 87.7611 91.1991 89.1418 88.8076ZM113.292 96.9775C110.901 95.5968 107.843 96.4162 106.462 98.8076C105.082 101.199 105.901 104.257 108.292 105.638C110.684 107.018 113.742 106.199 115.123 103.808C116.503 101.416 115.684 98.3582 113.292 96.9775Z" fill="black"/>
</g>
<g clip-path="url(#clip3_366_62083)">
<path fill-rule="evenodd" clip-rule="evenodd" d="M89.0176 -18.2506C89.3271 -18.3143 89.405 -18.7382 89.1313 -18.8962L85.6086 -20.93C85.4269 -21.0349 85.1945 -20.9478 85.1273 -20.749C84.7013 -19.4883 84.307 -18.2394 83.9445 -17.0047C83.86 -16.7168 84.1729 -16.4712 84.4388 -16.6103C85.8992 -17.3744 87.4421 -17.9264 89.0176 -18.2506ZM122.754 5.40206C122.547 5.61923 122.178 5.47096 122.165 5.17117C122.097 3.52436 121.804 1.91226 121.297 0.385633C121.197 0.0856592 121.525 -0.193753 121.799 -0.0357526L125.322 1.99825C125.503 2.10308 125.544 2.34785 125.405 2.50555C124.526 3.50476 123.642 4.47076 122.754 5.40206Z" fill="black"/>
<path fill-rule="evenodd" clip-rule="evenodd" d="M93.3343 18.1712C93.0936 18.5881 93.2689 19.2112 93.7483 19.2525C97.2865 19.5578 100.848 17.9567 102.922 14.8541C103.127 14.548 103.016 14.1384 102.697 13.9543L86.5313 4.62103C86.2124 4.43693 85.8022 4.54576 85.6395 4.87598C83.9898 8.2236 84.3839 12.1084 86.4174 15.0199C86.6928 15.4145 87.3201 15.2548 87.5608 14.8379C88.4813 13.2436 90.5199 12.6973 92.1142 13.6178C93.7085 14.5383 94.2548 16.5769 93.3343 18.1712Z" fill="black"/>
<path d="M83.1525 -4.15222C83.1778 -4.19598 83.2337 -4.21098 83.2775 -4.18571L111.986 12.3894C112.03 12.4147 112.045 12.4707 112.02 12.5144C110.757 14.7027 107.959 15.4524 105.77 14.1891L84.8272 2.09749C82.6389 0.834088 81.8891 -1.96397 83.1525 -4.15222Z" fill="black"/>
<path fill-rule="evenodd" clip-rule="evenodd" d="M112.039 -10.6279C112.107 -10.3717 112.275 -10.1533 112.504 -10.0207L115.531 -8.27362C115.849 -8.08945 115.96 -7.67983 115.756 -7.37366C115.738 -7.34746 115.721 -7.32144 115.703 -7.29547C115.381 -6.82354 115.449 -6.17102 115.878 -5.79318C121.325 -0.9901 122.822 7.13776 119.051 13.6696C118.75 14.1911 118.083 14.3698 117.562 14.0687L79.0358 -8.17432C78.5143 -8.47541 78.3357 -9.14226 78.6368 -9.66378C82.4013 -16.1841 90.1681 -18.953 97.0425 -16.659C97.5837 -16.4784 98.1814 -16.7458 98.4284 -17.2601C98.4431 -17.2907 98.458 -17.3213 98.473 -17.3518C98.6358 -17.6821 99.046 -17.791 99.3648 -17.6069L102.55 -15.7682C102.779 -15.6356 103.052 -15.5997 103.308 -15.6683L109.228 -17.2544C109.761 -17.3973 110.31 -17.0807 110.452 -16.5473L112.039 -10.6279ZM89.1418 -11.1924C90.5225 -13.5838 93.5804 -14.4032 95.9719 -13.0225C98.3634 -11.6418 99.1828 -8.58382 97.802 -6.19235C96.4213 -3.80091 93.3634 -2.98151 90.9719 -4.36223C88.5804 -5.74294 87.7611 -8.80091 89.1418 -11.1924ZM113.292 -3.02248C110.901 -4.40319 107.843 -3.58382 106.462 -1.19235C105.082 1.19909 105.901 4.25706 108.292 5.63777C110.684 7.01844 113.742 6.19909 115.123 3.80765C116.503 1.41618 115.684 -1.64181 113.292 -3.02248Z" fill="black"/>
</g>
<g clip-path="url(#clip4_366_62083)">
<path fill-rule="evenodd" clip-rule="evenodd" d="M-10.9824 -18.2506C-10.6729 -18.3143 -10.595 -18.7382 -10.8687 -18.8962L-14.3914 -20.93C-14.5731 -21.0349 -14.8055 -20.9478 -14.8727 -20.749C-15.2987 -19.4883 -15.693 -18.2394 -16.0555 -17.0047C-16.14 -16.7168 -15.8271 -16.4712 -15.5612 -16.6103C-14.1008 -17.3744 -12.5579 -17.9264 -10.9824 -18.2506ZM22.7539 5.40206C22.547 5.61923 22.1776 5.47096 22.1652 5.17117C22.0967 3.52436 21.8035 1.91226 21.2966 0.385633C21.1969 0.0856592 21.5248 -0.193753 21.7985 -0.0357526L25.3215 1.99825C25.5031 2.10308 25.5438 2.34785 25.4054 2.50555C24.5264 3.50476 23.6419 4.47076 22.7539 5.40206Z" fill="black"/>
<path fill-rule="evenodd" clip-rule="evenodd" d="M-6.66574 18.1712C-6.9064 18.5881 -6.73112 19.2112 -6.25167 19.2525C-2.71351 19.5578 0.848016 17.9567 2.92219 14.8541C3.12664 14.548 3.01593 14.1384 2.69694 13.9543L-13.4687 4.62103C-13.7876 4.43693 -14.1978 4.54576 -14.3605 4.87598C-16.0102 8.2236 -15.6161 12.1084 -13.5826 15.0199C-13.3072 15.4145 -12.6799 15.2548 -12.4392 14.8379C-11.5187 13.2436 -9.48015 12.6973 -7.88582 13.6178C-6.29153 14.5383 -5.74524 16.5769 -6.66574 18.1712Z" fill="black"/>
<path d="M-16.8475 -4.15222C-16.8222 -4.19598 -16.7663 -4.21098 -16.7225 -4.18571L11.9864 12.3894C12.0302 12.4147 12.0453 12.4707 12.02 12.5144C10.7566 14.7027 7.95856 15.4524 5.7704 14.1891L-15.1728 2.09749C-17.3611 0.834088 -18.1109 -1.96397 -16.8475 -4.15222Z" fill="black"/>
<path fill-rule="evenodd" clip-rule="evenodd" d="M12.0386 -10.6279C12.1072 -10.3717 12.2748 -10.1533 12.5045 -10.0207L15.5305 -8.27362C15.8495 -8.08945 15.9602 -7.67983 15.7557 -7.37366C15.7383 -7.34746 15.7205 -7.32144 15.7029 -7.29547C15.3807 -6.82354 15.4493 -6.17102 15.8778 -5.79318C21.3251 -0.9901 22.8224 7.13776 19.0513 13.6696C18.7502 14.1911 18.0835 14.3698 17.5618 14.0687L-20.9642 -8.17432C-21.4857 -8.47541 -21.6643 -9.14226 -21.3632 -9.66378C-17.5987 -16.1841 -9.83186 -18.953 -2.9575 -16.659C-2.41629 -16.4784 -1.81859 -16.7458 -1.57159 -17.2601C-1.55688 -17.2907 -1.542 -17.3213 -1.52697 -17.3518C-1.36423 -17.6821 -0.954028 -17.791 -0.635158 -17.6069L2.54954 -15.7682C2.77923 -15.6356 3.05218 -15.5997 3.30835 -15.6683L9.2277 -17.2544C9.76118 -17.3973 10.3095 -17.0807 10.4525 -16.5473L12.0386 -10.6279ZM-10.8582 -11.1924C-9.4775 -13.5838 -6.41956 -14.4032 -4.02809 -13.0225C-1.63662 -11.6418 -0.817244 -8.58382 -2.19796 -6.19235C-3.57866 -3.80091 -6.63662 -2.98151 -9.02809 -4.36223C-11.4196 -5.74294 -12.2389 -8.80091 -10.8582 -11.1924ZM13.2924 -3.02248C10.9009 -4.40319 7.84301 -3.58382 6.46229 -1.19235C5.08159 1.19909 5.90095 4.25706 8.29242 5.63777C10.6838 7.01844 13.7418 6.19909 15.1225 3.80765C16.5033 1.41618 15.6838 -1.64181 13.2924 -3.02248Z" fill="black"/>
</g>
<path d="M72.4172 35.0647L75.2959 36.7267C75.3721 36.7707 75.4219 36.8364 75.4453 36.9238C75.4688 37.0112 75.4585 37.0931 75.4145 37.1693L74.5085 38.7385C74.4645 38.8147 74.3988 38.8645 74.3113 38.888C74.2239 38.9114 74.1421 38.9011 74.0659 38.8571L68.8282 35.8331C68.752 35.7891 68.7021 35.7234 68.6787 35.636C68.6553 35.5485 68.6656 35.4667 68.7096 35.3905L72.5856 28.6771C72.6296 28.6009 72.6953 28.5511 72.7827 28.5276C72.8701 28.5042 72.952 28.5145 73.0282 28.5585L75.1066 29.7585C75.1828 29.8025 75.2327 29.8682 75.2561 29.9556C75.2795 30.0431 75.2692 30.1249 75.2252 30.2011L72.4172 35.0647ZM83.7991 34.7771L85.836 35.9531C85.9122 35.9971 85.9621 36.0628 85.9855 36.1503C86.0089 36.2377 85.9986 36.3195 85.9546 36.3957L83.5426 40.5734C82.9826 41.5434 82.2592 42.1003 81.3725 42.2442C80.4897 42.3812 79.5287 42.1496 78.4895 41.5496C77.4572 40.9536 76.7762 40.2372 76.4465 39.4002C76.1238 38.5672 76.2444 37.6623 76.8084 36.6854L79.2204 32.5077C79.2644 32.4315 79.3301 32.3817 79.4175 32.3583C79.505 32.3348 79.5868 32.3451 79.663 32.3891L81.6999 33.5651C81.7761 33.6091 81.8259 33.6748 81.8493 33.7623C81.8728 33.8497 81.8625 33.9315 81.8185 34.0077L79.3885 38.2166C79.0805 38.7501 79.1828 39.1648 79.6955 39.4608C80.2082 39.7568 80.6185 39.6381 80.9265 39.1046L83.3565 34.8957C83.4005 34.8195 83.4663 34.7697 83.5537 34.7463C83.6411 34.7228 83.7229 34.7331 83.7991 34.7771ZM89.6377 38.148L91.8928 39.45C92.1422 39.594 92.2321 39.7983 92.1624 40.0629L90.6519 48.0312C90.6469 48.056 90.6303 48.0927 90.6023 48.1411C90.5783 48.1827 90.5281 48.2137 90.4516 48.2342C90.386 48.2518 90.322 48.2426 90.2597 48.2066L88.3371 47.0966C88.1293 46.9766 88.0442 46.812 88.0818 46.6028L88.2284 45.7729L85.9941 44.4829L85.3486 45.0248C85.1863 45.162 85.0012 45.1706 84.7933 45.0506L82.8708 43.9406C82.8084 43.9046 82.765 43.8518 82.7405 43.7822C82.7269 43.7097 82.7321 43.6527 82.7561 43.6111C82.7841 43.5626 82.8076 43.53 82.8265 43.5132L88.972 38.2209C89.1664 38.0283 89.3882 38.004 89.6377 38.148ZM87.6941 42.7624L88.8684 43.4404L89.392 41.1654L87.6941 42.7624ZM101.351 44.9109L102.993 45.8589C103.07 45.9029 103.119 45.9686 103.143 46.0561C103.166 46.1435 103.156 46.2253 103.112 46.3015L99.236 53.0149C99.192 53.0912 99.1263 53.141 99.0389 53.1644C98.9514 53.1878 98.8696 53.1775 98.7934 53.1335L96.9124 52.0475C96.8362 52.0035 96.7864 51.9378 96.7629 51.8504C96.7395 51.763 96.7498 51.6812 96.7938 51.6049L98.4378 48.7575L97.1039 49.4838C96.8931 49.593 96.7149 49.6056 96.5694 49.5216L95.8419 49.1016C95.6964 49.0176 95.6183 48.857 95.6074 48.6198L95.5695 47.1015L93.9255 49.9489C93.8815 50.0252 93.8158 50.075 93.7284 50.0984C93.641 50.1218 93.5591 50.1115 93.4829 50.0675L91.6019 48.9815C91.5257 48.9375 91.4759 48.8718 91.4525 48.7844C91.429 48.697 91.4393 48.6152 91.4833 48.5389L95.3593 41.8255C95.4033 41.7493 95.469 41.6995 95.5565 41.6761C95.6439 41.6526 95.7257 41.6629 95.8019 41.7069L97.4439 42.6549C97.6379 42.7669 97.7329 42.9465 97.7288 43.1935L97.7957 46.5577L100.743 44.9335C100.954 44.8065 101.157 44.7989 101.351 44.9109ZM104.979 47.8919C105.912 47.7472 106.902 47.9769 107.948 48.5809C108.994 49.1849 109.682 49.9287 110.013 50.8123C110.354 51.693 110.255 52.601 109.715 53.5363L108.779 55.1575C108.231 56.1066 107.498 56.6486 106.579 56.7835C105.672 56.9154 104.688 56.6753 103.628 56.0633C102.568 55.4513 101.865 54.7174 101.518 53.8615C101.183 53.0026 101.289 52.0986 101.837 51.1495L102.773 49.5283C103.317 48.586 104.052 48.0406 104.979 47.8919ZM104.357 53.505C104.415 53.7235 104.562 53.9008 104.798 54.0368C105.033 54.1728 105.261 54.2115 105.479 54.153C105.698 54.0944 105.889 53.9231 106.053 53.639L107.061 51.8931C107.221 51.616 107.272 51.3682 107.213 51.1496C107.159 50.9241 107.013 50.7434 106.778 50.6074C106.542 50.4714 106.313 50.4361 106.091 50.5016C105.872 50.5602 105.683 50.728 105.523 51.0051L104.515 52.751C104.351 53.0351 104.298 53.2864 104.357 53.505ZM115.191 62.1433C115.188 62.1969 115.172 62.2479 115.144 62.2964C115.116 62.3449 115.064 62.3794 114.987 62.3999C114.922 62.4175 114.858 62.4083 114.795 62.3723L112.665 61.1423C112.45 61.0183 112.355 60.8387 112.38 60.6037L112.632 58.1028L112.206 57.8568L111.06 59.8417C111.016 59.9179 110.951 59.9677 110.863 59.9911C110.776 60.0146 110.694 60.0043 110.618 59.9603L108.581 58.7843C108.505 58.7403 108.455 58.6746 108.431 58.5871C108.408 58.4997 108.418 58.4179 108.462 58.3417L112.338 51.6283C112.382 51.552 112.448 51.5022 112.535 51.4788C112.623 51.4554 112.705 51.4657 112.781 51.5097L115.857 53.2857C116.855 53.8617 117.504 54.5368 117.805 55.3112C118.11 56.0786 118.021 56.8814 117.537 57.7197C117.057 58.5511 116.305 58.9898 115.281 59.0359L115.191 62.1433ZM113.982 54.7806L113.346 55.8822L114.105 56.3202C114.257 56.4082 114.403 56.4277 114.542 56.3787C114.685 56.3228 114.801 56.2186 114.889 56.0662C114.977 55.9138 115.011 55.7581 114.992 55.5993C114.984 55.4375 114.9 55.3106 114.741 55.2186L113.982 54.7806ZM118.414 64.4614L116.294 63.2374C116.218 63.1934 116.168 63.1277 116.144 63.0403C116.121 62.9528 116.131 62.871 116.175 62.7948L120.051 56.0814C120.095 56.0052 120.161 55.9553 120.248 55.9319C120.336 55.9085 120.418 55.9188 120.494 55.9628L122.614 57.1868C122.69 57.2308 122.74 57.2965 122.763 57.3839C122.787 57.4713 122.776 57.5532 122.732 57.6294L118.856 64.3428C118.812 64.419 118.747 64.4688 118.659 64.4923C118.572 64.5157 118.49 64.5054 118.414 64.4614ZM122.735 60.3053C123.143 59.5986 123.766 59.1915 124.604 59.0841C125.449 58.9807 126.346 59.203 127.295 59.751C128.251 60.303 128.897 60.9851 129.232 61.7973C129.573 62.6135 129.598 63.2745 129.306 63.7802C129.27 63.8426 129.214 63.884 129.137 63.9045C129.072 63.9221 129.011 63.9149 128.956 63.8829L126.877 62.6829C126.718 62.5909 126.606 62.448 126.543 62.2542C126.479 62.0604 126.337 61.8995 126.115 61.7715C125.782 61.5795 125.56 61.5805 125.448 61.7745C125.388 61.8784 125.418 62.011 125.537 62.1723C125.663 62.3376 125.932 62.576 126.344 62.8874C127.3 63.615 127.894 64.2815 128.127 64.8868C128.37 65.4893 128.286 66.1473 127.874 66.8609C127.466 67.5675 126.806 67.9581 125.895 68.0324C124.995 68.1038 124.021 67.8375 122.975 67.2335C121.929 66.6295 121.232 65.9407 120.884 65.1672C120.536 64.3936 120.541 63.6985 120.897 63.0819C120.933 63.0196 120.983 62.9796 121.049 62.962C121.125 62.9415 121.195 62.9493 121.257 62.9853L123.232 64.1253C123.377 64.2093 123.497 64.3706 123.59 64.6091C123.69 64.8517 123.896 65.063 124.208 65.243C124.727 65.543 125.043 65.596 125.155 65.402C125.227 65.2773 125.187 65.1298 125.036 64.9594C124.889 64.7821 124.576 64.5089 124.096 64.1396C122.445 62.872 121.991 61.5939 122.735 60.3053Z" fill="black"/>
<path d="M-27.5828 35.0647L-24.7041 36.7267C-24.6279 36.7707 -24.5781 36.8364 -24.5547 36.9238C-24.5312 37.0112 -24.5415 37.0931 -24.5855 37.1693L-25.4915 38.7385C-25.5355 38.8147 -25.6012 38.8645 -25.6887 38.888C-25.7761 38.9114 -25.8579 38.9011 -25.9341 38.8571L-31.1718 35.8331C-31.248 35.7891 -31.2979 35.7234 -31.3213 35.636C-31.3447 35.5485 -31.3344 35.4667 -31.2904 35.3905L-27.4144 28.6771C-27.3704 28.6009 -27.3047 28.5511 -27.2173 28.5276C-27.1299 28.5042 -27.048 28.5145 -26.9718 28.5585L-24.8934 29.7585C-24.8172 29.8025 -24.7673 29.8682 -24.7439 29.9556C-24.7205 30.0431 -24.7308 30.1249 -24.7748 30.2011L-27.5828 35.0647ZM-16.2009 34.7771L-14.164 35.9531C-14.0878 35.9971 -14.0379 36.0628 -14.0145 36.1503C-13.9911 36.2377 -14.0014 36.3195 -14.0454 36.3957L-16.4574 40.5734C-17.0174 41.5434 -17.7408 42.1003 -18.6275 42.2442C-19.5103 42.3812 -20.4713 42.1496 -21.5105 41.5496C-22.5428 40.9536 -23.2238 40.2372 -23.5535 39.4002C-23.8762 38.5672 -23.7556 37.6623 -23.1916 36.6854L-20.7796 32.5077C-20.7356 32.4315 -20.6699 32.3817 -20.5825 32.3583C-20.495 32.3348 -20.4132 32.3451 -20.337 32.3891L-18.3001 33.5651C-18.2239 33.6091 -18.1741 33.6748 -18.1507 33.7623C-18.1272 33.8497 -18.1375 33.9315 -18.1815 34.0077L-20.6115 38.2166C-20.9195 38.7501 -20.8172 39.1648 -20.3045 39.4608C-19.7918 39.7568 -19.3815 39.6381 -19.0735 39.1046L-16.6435 34.8957C-16.5995 34.8195 -16.5337 34.7697 -16.4463 34.7463C-16.3589 34.7228 -16.2771 34.7331 -16.2009 34.7771ZM-10.3623 38.148L-8.10721 39.45C-7.85779 39.594 -7.76791 39.7983 -7.83755 40.0629L-9.34807 48.0312C-9.35314 48.056 -9.36968 48.0927 -9.39768 48.1411C-9.42168 48.1827 -9.47193 48.2137 -9.54842 48.2342C-9.61399 48.2518 -9.67795 48.2426 -9.74031 48.2066L-11.6629 47.0966C-11.8707 46.9766 -11.9558 46.812 -11.9182 46.6028L-11.7716 45.7729L-14.0059 44.4829L-14.6514 45.0248C-14.8137 45.162 -14.9988 45.1706 -15.2067 45.0506L-17.1292 43.9406C-17.1916 43.9046 -17.235 43.8518 -17.2595 43.7822C-17.2731 43.7097 -17.2679 43.6527 -17.2439 43.6111C-17.2159 43.5626 -17.1924 43.53 -17.1735 43.5132L-11.028 38.2209C-10.8336 38.0283 -10.6118 38.004 -10.3623 38.148ZM-12.3059 42.7624L-11.1316 43.4404L-10.608 41.1654L-12.3059 42.7624ZM1.35142 44.9109L2.9934 45.8589C3.06961 45.9029 3.11943 45.9686 3.14285 46.0561C3.16628 46.1435 3.15599 46.2253 3.11199 46.3015L-0.764009 53.0149C-0.808009 53.0912 -0.873722 53.141 -0.961147 53.1644C-1.04857 53.1878 -1.13039 53.1775 -1.2066 53.1335L-3.08761 52.0475C-3.16382 52.0035 -3.21364 51.9378 -3.23706 51.8504C-3.26049 51.763 -3.2502 51.6812 -3.2062 51.6049L-1.5622 48.7575L-2.89609 49.4838C-3.10694 49.593 -3.28512 49.6056 -3.43061 49.5216L-4.15807 49.1016C-4.30356 49.0176 -4.38173 48.857 -4.39258 48.6198L-4.43048 47.1015L-6.07448 49.9489C-6.11848 50.0252 -6.18419 50.075 -6.27162 50.0984C-6.35904 50.1218 -6.44086 50.1115 -6.51707 50.0675L-8.39808 48.9815C-8.47429 48.9375 -8.5241 48.8718 -8.54753 48.7844C-8.57096 48.697 -8.56067 48.6152 -8.51667 48.5389L-4.64067 41.8255C-4.59667 41.7493 -4.53096 41.6995 -4.44353 41.6761C-4.3561 41.6526 -4.27429 41.6629 -4.19808 41.7069L-2.55609 42.6549C-2.3621 42.7669 -2.26715 42.9465 -2.27122 43.1935L-2.20434 46.5577L0.742546 44.9335C0.954469 44.8065 1.15743 44.7989 1.35142 44.9109ZM4.9786 47.8919C5.912 47.7472 6.90177 47.9769 7.94793 48.5809C8.99409 49.1849 9.6824 49.9287 10.0129 50.8123C10.3543 51.693 10.255 52.601 9.71496 53.5363L8.77896 55.1575C8.23096 56.1066 7.49773 56.6486 6.57926 56.7835C5.67172 56.9154 4.68795 56.6753 3.62793 56.0633C2.56792 55.4513 1.86467 54.7174 1.51821 53.8615C1.18267 53.0026 1.2889 52.0986 1.8369 51.1495L2.7729 49.5283C3.3169 48.586 4.05213 48.0406 4.9786 47.8919ZM4.35675 53.505C4.41531 53.7235 4.56237 53.9008 4.79793 54.0368C5.03349 54.1728 5.26055 54.2115 5.47912 54.153C5.69768 54.0944 5.88896 53.9231 6.05296 53.639L7.06096 51.8931C7.22096 51.616 7.27168 51.3682 7.21312 51.1496C7.15855 50.9241 7.01349 50.7434 6.77793 50.6074C6.54237 50.4714 6.31331 50.4361 6.09075 50.5016C5.87218 50.5602 5.6829 50.728 5.5229 51.0051L4.5149 52.751C4.3509 53.0351 4.29818 53.2864 4.35675 53.505ZM15.1908 62.1433C15.1876 62.1969 15.172 62.2479 15.144 62.2964C15.116 62.3449 15.0637 62.3794 14.9872 62.3999C14.9217 62.4175 14.8577 62.4083 14.7954 62.3723L12.6649 61.1423C12.4502 61.0183 12.3552 60.8387 12.3801 60.6037L12.6323 58.1028L12.2062 57.8568L11.0602 59.8417C11.0162 59.9179 10.9505 59.9677 10.8631 59.9911C10.7757 60.0146 10.6939 60.0043 10.6176 59.9603L8.58076 58.7843C8.50455 58.7403 8.45473 58.6746 8.4313 58.5871C8.40788 58.4997 8.41817 58.4179 8.46217 58.3417L12.3382 51.6283C12.3822 51.552 12.4479 51.5022 12.5353 51.4788C12.6227 51.4554 12.7045 51.4657 12.7808 51.5097L15.8569 53.2857C16.8545 53.8617 17.504 54.5368 17.8051 55.3112C18.1103 56.0786 18.0209 56.8814 17.5369 57.7197C17.0569 58.5511 16.3048 58.9898 15.2806 59.0359L15.1908 62.1433ZM13.9822 54.7806L13.3462 55.8822L14.1049 56.3202C14.2573 56.4082 14.4031 56.4277 14.5422 56.3787C14.6854 56.3228 14.8009 56.2186 14.8889 56.0662C14.9769 55.9138 15.0114 55.7581 14.9922 55.5993C14.984 55.4375 14.9002 55.3106 14.7409 55.2186L13.9822 54.7806ZM18.4138 64.4614L16.2938 63.2374C16.2176 63.1934 16.1678 63.1277 16.1443 63.0403C16.1209 62.9528 16.1312 62.871 16.1752 62.7948L20.0512 56.0814C20.0952 56.0052 20.1609 55.9553 20.2483 55.9319C20.3358 55.9085 20.4176 55.9188 20.4938 55.9628L22.6138 57.1868C22.69 57.2308 22.7399 57.2965 22.7633 57.3839C22.7867 57.4713 22.7764 57.5532 22.7324 57.6294L18.8564 64.3428C18.8124 64.419 18.7467 64.4688 18.6593 64.4923C18.5719 64.5157 18.49 64.5054 18.4138 64.4614ZM22.7352 60.3053C23.1432 59.5986 23.7662 59.1915 24.6041 59.0841C25.449 58.9807 26.3461 59.203 27.2952 59.751C28.2513 60.303 28.8968 60.9851 29.2315 61.7973C29.5732 62.6135 29.598 63.2745 29.306 63.7802C29.27 63.8426 29.2138 63.884 29.1373 63.9045C29.0717 63.9221 29.0112 63.9149 28.9558 63.8829L26.8773 62.6829C26.718 62.5909 26.6065 62.448 26.5429 62.2542C26.4792 62.0604 26.3365 61.8995 26.1148 61.7715C25.7823 61.5795 25.56 61.5805 25.448 61.7745C25.388 61.8784 25.4177 62.011 25.537 62.1723C25.6633 62.3376 25.9322 62.576 26.3436 62.8874C27.2999 63.615 27.8943 64.2815 28.1267 64.8868C28.3701 65.4893 28.2858 66.1473 27.8738 66.8609C27.4658 67.5675 26.8062 67.9581 25.895 68.0324C24.9946 68.1038 24.0214 67.8375 22.9752 67.2335C21.9291 66.6295 21.2321 65.9407 20.8843 65.1672C20.5364 64.3936 20.5405 63.6985 20.8965 63.0819C20.9325 63.0196 20.9833 62.9796 21.0489 62.962C21.1254 62.9415 21.1948 62.9493 21.2572 62.9853L23.2317 64.1253C23.3772 64.2093 23.4965 64.3706 23.5897 64.6091C23.6899 64.8517 23.8958 65.063 24.2076 65.243C24.7272 65.543 25.043 65.596 25.155 65.402C25.227 65.2773 25.1875 65.1298 25.0364 64.9594C24.8894 64.7821 24.576 64.5089 24.0964 64.1396C22.4449 62.872 21.9912 61.5939 22.7352 60.3053Z" fill="black"/>
<path d="M20.6926 32.449L20.4075 31.5748C20.1003 30.6116 19.8605 29.7942 19.6882 29.1227C19.5159 28.4513 19.4044 27.8737 19.3536 27.3899C19.3027 26.9062 19.3104 26.4936 19.3765 26.1522C19.4426 25.8109 19.5619 25.4908 19.7344 25.1921C20.0943 24.5687 20.6032 24.1675 21.2611 23.9887C21.919 23.8099 22.5576 23.8993 23.1771 24.2569C23.5039 24.4456 23.7714 24.6883 23.9797 24.9849C24.1879 25.2816 24.3307 25.6246 24.4079 26.014C24.8147 25.888 25.1929 25.8418 25.5425 25.8752C25.8921 25.9086 26.2262 26.0174 26.545 26.2014C27.1684 26.5613 27.5692 27.072 27.7473 27.7335C27.9254 28.395 27.8344 29.0374 27.4745 29.6609C27.3032 29.9576 27.0873 30.2192 26.8269 30.4457C26.5665 30.6722 26.2139 30.8836 25.7691 31.0799C25.3244 31.2762 24.7658 31.4682 24.0934 31.656C23.421 31.8438 22.5893 32.0459 21.5983 32.2623L20.6926 32.449Z" fill="black"/>
<path d="M76.1333 73.3389L75.0389 72.3556C73.8426 71.2667 72.8565 70.3259 72.0806 69.5333C71.3046 68.7407 70.688 68.0296 70.2306 67.4C69.7732 66.7704 69.4537 66.1926 69.2722 65.6667C69.0907 65.1407 69 64.6018 69 64.05C69 62.8981 69.3843 61.9352 70.1528 61.1611C70.9213 60.387 71.8778 60 73.0222 60C73.6259 60 74.1907 60.1222 74.7167 60.3667C75.2426 60.6111 75.7148 60.9722 76.1333 61.45C76.5963 60.95 77.0833 60.5833 77.5945 60.35C78.1056 60.1167 78.6556 60 79.2445 60C80.3963 60 81.3602 60.387 82.1361 61.1611C82.912 61.9352 83.3 62.8981 83.3 64.05C83.3 64.5981 83.2102 65.1333 83.0306 65.6556C82.8509 66.1778 82.5315 66.7528 82.0722 67.3806C81.613 68.0083 80.9926 68.7213 80.2111 69.5195C79.4296 70.3176 78.4389 71.263 77.2389 72.3556L76.1333 73.3389Z" fill="black"/>
<path d="M49.9167 108.674L48.5486 107.444C47.0533 106.083 45.8206 104.907 44.8507 103.917C43.8808 102.926 43.11 102.037 42.5382 101.25C41.9664 100.463 41.5671 99.7407 41.3403 99.0833C41.1134 98.4259 41 97.7523 41 97.0625C41 95.6227 41.4803 94.419 42.441 93.4514C43.4016 92.4838 44.5972 92 46.0278 92C46.7824 92 47.4884 92.1528 48.1458 92.4583C48.8032 92.7639 49.3935 93.2153 49.9167 93.8125C50.4954 93.1875 51.1042 92.7292 51.7431 92.4375C52.382 92.1458 53.0695 92 53.8056 92C55.2454 92 56.4502 92.4838 57.4201 93.4514C58.39 94.419 58.875 95.6227 58.875 97.0625C58.875 97.7477 58.7627 98.4167 58.5382 99.0694C58.3136 99.7222 57.9143 100.441 57.3403 101.226C56.7662 102.01 55.9907 102.902 55.0139 103.899C54.037 104.897 52.7986 106.079 51.2986 107.444L49.9167 108.674Z" fill="black"/>
<path d="M49.9167 8.6736L48.5486 7.44444C47.0533 6.08333 45.8206 4.9074 44.8507 3.91667C43.8808 2.92593 43.11 2.03704 42.5382 1.25C41.9664 0.462958 41.5671 -0.259264 41.3403 -0.916667C41.1134 -1.57408 41 -2.24769 41 -2.9375C41 -4.37732 41.4803 -5.58102 42.441 -6.5486C43.4016 -7.5162 44.5972 -8 46.0278 -8C46.7824 -8 47.4884 -7.84722 48.1458 -7.54167C48.8032 -7.23611 49.3935 -6.78472 49.9167 -6.18748C50.4954 -6.81249 51.1042 -7.27083 51.7431 -7.5625C52.382 -7.85417 53.0695 -8 53.8056 -8C55.2454 -8 56.4502 -7.5162 57.4201 -6.5486C58.39 -5.58102 58.875 -4.37732 58.875 -2.9375C58.875 -2.25232 58.7627 -1.58334 58.5382 -0.930563C58.3136 -0.277785 57.9143 0.440965 57.3403 1.22569C56.7662 2.01041 55.9907 2.90162 55.0139 3.89931C54.037 4.89699 52.7986 6.0787 51.2986 7.44444L49.9167 8.6736Z" fill="black"/>
<path fill-rule="evenodd" clip-rule="evenodd" d="M53.5599 42.6153C53.7146 42.3473 53.6228 42.0046 53.3547 41.8498L50.2808 40.0751C50.1074 39.975 49.8938 39.975 49.7204 40.0751L45.5176 42.5016L47.2302 43.4903L49.0789 41.9694L49.8068 42.3897L49.8068 42.3897L51.5056 43.3705L51.0853 44.0984L49.3865 43.1176L48.4622 43.8781L47.5378 44.6385L46.81 44.2183L46.8099 44.2182L45.0453 43.1994L44.6771 42.9868L41.5455 44.7949C41.3721 44.895 41.2653 45.08 41.2653 45.2802L41.2653 48.7817L41.6831 49.023L43.4477 50.0418L43.4478 50.0418L44.1756 50.462L43.9792 51.6428L43.7828 52.8235L45.4816 53.8043L45.0613 54.5322L43.3626 53.5514L43.3626 53.5515L42.6346 53.1312L43.0274 50.7697L41.2653 49.7523L41.2653 54.7198C41.2653 54.92 41.3721 55.105 41.5455 55.2051L44.6194 56.9799C44.8874 57.1346 45.2302 57.0428 45.3849 56.7748L48.5165 51.3506L46.3325 50.0897L46.3325 50.0897L45.6045 49.6694L45.9973 47.3079L43.571 45.9071L44.653 45.5612L46.4176 46.58L46.4177 46.58L47.1456 47.0003L46.9492 48.181L46.7528 49.3617L48.9368 50.6227L50.6179 47.7109L47.9491 46.17L49.1635 45.9006L51.0382 46.983L53.5599 42.6153ZM46.3555 57.3351C46.2007 57.6031 46.2926 57.9459 46.5606 58.1006L49.7204 59.9249C49.8938 60.025 50.1074 60.025 50.2808 59.9249L54.5827 57.4412L52.7346 56.3742L50.8859 57.8951L50.158 57.4748L50.158 57.4748L48.4592 56.494L48.8795 55.766L50.5783 56.7468L51.5026 55.9864L52.4269 55.2259L53.1548 55.6462L53.1549 55.6462L54.9195 56.665L55.4233 56.9559L58.4557 55.2051C58.6291 55.105 58.7359 54.92 58.7359 54.7198L58.7359 51.1037L58.2817 50.8415L56.5171 49.8227L56.517 49.8226L55.7892 49.4024L55.9856 48.2217L56.182 47.041L54.4832 46.0602L54.9034 45.3322L56.6022 46.313L56.6022 46.313L57.3302 46.7333L56.9374 49.0948L58.7359 50.1331L58.7359 45.2802C58.7359 45.08 58.6291 44.895 58.4557 44.7949L55.2959 42.9706C55.0279 42.8158 54.6852 42.9077 54.5304 43.1757L52.0088 47.5433L53.8837 48.6258L54.2575 49.8122L51.5885 48.2713L49.9074 51.183L52.0913 52.4439L53.0156 51.6835L53.94 50.923L54.6678 51.3432L54.6679 51.3433L56.4325 52.3621L56.674 53.4721L54.2476 52.0712L52.3989 53.5921L51.671 53.1719L51.671 53.1719L49.4871 51.911L46.3555 57.3351Z" fill="black"/>
</g>
<defs>
<clipPath id="clip0_366_62083">
<rect width="100" height="100" fill="white"/>
</clipPath>
<clipPath id="clip1_366_62083">
<rect width="50" height="50" fill="white" transform="translate(-9.15039 65.8494) rotate(30)"/>
</clipPath>
<clipPath id="clip2_366_62083">
<rect width="50" height="50" fill="white" transform="translate(90.8496 65.8494) rotate(30)"/>
</clipPath>
<clipPath id="clip3_366_62083">
<rect width="50" height="50" fill="white" transform="translate(90.8496 -34.1506) rotate(30)"/>
</clipPath>
<clipPath id="clip4_366_62083">
<rect width="50" height="50" fill="white" transform="translate(-9.15039 -34.1506) rotate(30)"/>
</clipPath>
</defs>
</svg>
