<svg width="150" height="150" viewBox="0 0 150 150" fill="none" xmlns="http://www.w3.org/2000/svg">
<rect width="150" height="150" rx="75" fill="white"/>
<path fill-rule="evenodd" clip-rule="evenodd" d="M26.7726 48.6628C27.4752 48.0264 27.0387 46.8048 26.0908 46.8048L16.2153 46.8048C15.5857 46.8048 15.1127 47.3796 15.2368 47.9968C15.8755 51.1735 16.5638 54.2899 17.2995 57.3413C17.5105 58.2163 18.6937 58.3864 19.1815 57.63C21.3367 54.2882 23.8922 51.2719 26.7726 48.6628ZM132.7 57.3415C132.489 58.2165 131.306 58.3866 130.818 57.6302C128.663 54.2883 126.108 51.272 123.227 48.6628C122.525 48.0264 122.961 46.8048 123.909 46.8048L133.785 46.8048C134.414 46.8048 134.887 47.3796 134.763 47.9968C134.124 51.1736 133.436 54.2901 132.7 57.3415Z" fill="#191A1B"/>
<path fill-rule="evenodd" clip-rule="evenodd" d="M83.5186 123.948C83.5186 125.185 84.7102 126.348 85.8308 125.823C94.0207 121.992 99.8583 113.97 100.585 104.518C100.67 103.416 99.7661 102.519 98.6615 102.519H51.2329C50.1284 102.519 49.2248 103.416 49.3095 104.518C50.0361 113.97 55.8738 121.992 64.0636 125.823C65.1842 126.348 66.3758 125.185 66.3758 123.948V123.948C66.3758 119.214 70.2133 115.376 74.9472 115.376C79.6811 115.376 83.5186 119.214 83.5186 123.948V123.948Z" fill="#191A1B"/>
<path d="M32.1429 87.3259C32.1429 87.196 32.2482 87.0906 32.3781 87.0906H117.622C117.752 87.0906 117.857 87.196 117.857 87.3259V87.3259C117.857 93.8234 112.59 99.0906 106.092 99.0906H43.9075C37.4101 99.0906 32.1429 93.8234 32.1429 87.3259V87.3259Z" fill="#191A1B"/>
<path fill-rule="evenodd" clip-rule="evenodd" d="M89.5708 36.5192C89.0603 36.5192 88.605 36.2274 88.244 35.8665L77.3039 24.9264C76.1324 23.7548 74.2329 23.7548 73.0613 24.9264L62.1212 35.8665C61.7603 36.2274 61.3049 36.5192 60.7945 36.5192H51.233C50.1284 36.5192 49.2249 37.4178 49.3096 38.5191C49.4211 39.969 48.4426 41.321 47.0176 41.6112C28.7478 45.332 15 61.4897 15 80.8583C15 82.4068 16.2553 83.6621 17.8037 83.6621H132.196C133.745 83.6621 135 82.4068 135 80.8583C135 61.4489 121.194 45.2639 102.867 41.5879C101.449 41.3036 100.474 39.9605 100.585 38.5191C100.67 37.4178 99.7661 36.5192 98.6615 36.5192H89.5708ZM36.4286 63.9478C36.4286 56.847 42.1849 51.0906 49.2857 51.0906C56.3865 51.0906 62.1429 56.847 62.1429 63.9478C62.1429 71.0486 56.3865 76.8049 49.2857 76.8049C42.1849 76.8049 36.4286 71.0486 36.4286 63.9478ZM100.714 51.0906C93.6135 51.0906 87.8571 56.847 87.8571 63.9478C87.8571 71.0486 93.6135 76.8049 100.714 76.8049C107.815 76.8049 113.571 71.0486 113.571 63.9478C113.571 56.847 107.815 51.0906 100.714 51.0906Z" fill="#191A1B"/>
</svg>
